<svg id="Capa_1" enable-background="new 0 0 512 512" height="512" viewBox="0 0 512 512" width="512" xmlns="http://www.w3.org/2000/svg"><g><g><circle cx="256" cy="256" fill="#5ed8d3" r="256"/><g><path d="m256 .02v511.96c66.086.439 130.597-24.538 181.019-74.96 99.974-99.974 99.974-262.064 0-362.039-50.422-50.423-114.933-75.4-181.019-74.961z" fill="#31bebe"/></g></g><g><path d="m256.986 62.988c-49.727-.252-99.533 18.583-137.474 56.524-75.38 75.38-75.38 197.596 0 272.977 37.941 37.941 87.747 56.776 137.474 56.523z" fill="#31bebe"/><g><path d="m256 62.992v386.016c49.829.331 98.47-18.501 136.488-56.52 75.38-75.38 75.38-197.596 0-272.977-38.018-38.018-86.659-56.85-136.488-56.519z" fill="#259ea5"/></g></g><g><path d="m260.739 290.485c-.509.694-4.248-20.493-4.739-19.844-4.054-5.377-8.42-12.289-12.154-20.174 3.679-.35 8.374-.629 13.656-.568v-30.182c-8.752-.092-16.166.567-21.178 1.208-.005-.307-.016-.614-.016-.922 0-20.391 10.937-39.095 19.692-50.667.493.652 7.119-25.333 7.626-24.637l-7.626-19.086s-49.874 47.743-49.874 94.39c0 3.072.174 6.097.483 9.073-5.52 2.381-10.95 5.326-16.131 8.953-38.215 26.75-48.626 95.129-48.626 95.129s25.517 5.199 40.365 5.199c18.777 0 44.322-3.389 65.662-18.325 2.603-1.822 5.418-3.78 8.121-5.878zm-30.168 4.822c-16.71 11.697-38.406 13.319-52.901 12.781 4.458-13.808 13.409-33.637 30.115-45.333 2.155-1.509 4.396-2.84 6.692-4.03 5.9 13.944 13.855 25.536 20.292 33.59-1.575 1.155-3.042 2.183-4.198 2.992z" fill="#ffef55"/><path d="m321.522 238.029c-5.021-3.634-10.395-6.449-15.801-8.806.319-3.024.501-6.097.501-9.22 0-46.647-50.223-94.39-50.223-94.39v43.725c0-.001-.001-.001 0-.002 8.754 11.572 20.041 30.276 20.041 50.667 0 .356-.011.711-.018 1.067-7.135-.998-13.93-1.358-20.023-1.364v30.185c3.878-.002 8.107.172 12.52.642-3.722 7.87-8.472 14.754-12.52 20.109-.001-.001-.001 43.514 0 43.514 0 0 5.507 4.047 8.121 5.877 21.342 14.94 46.885 18.326 65.662 18.326 14.845 0 40.365-5.199 40.365-5.199s-6.486-64.632-48.625-95.131zm-40.093 57.277c-1.381-.967-2.712-1.899-3.985-2.82 6.438-8.033 14.433-19.638 20.369-33.618 2.195 1.153 4.337 2.441 6.402 3.887 16.708 11.697 25.66 31.532 30.116 45.332-14.495.533-36.198-1.087-52.902-12.781z" fill="#fed843"/></g></g></svg>